<svg width="374" height="96" viewBox="0 0 374 96" fill="none" xmlns="http://www.w3.org/2000/svg">
<g clip-path="url(#clip0_1411_712)">
<path d="M84.6428 54.9105C80.6025 53.1887 76.3016 52.1609 71.9206 51.8703C71.2868 51.9939 70.63 51.9035 70.0531 51.6131C70.3055 51.0549 70.7665 50.6182 71.337 50.397C73.8116 48.8524 76.0855 47.0064 78.1066 44.9013C78.4185 44.6578 78.6582 44.3336 78.7996 43.9637C78.9411 43.5938 78.9791 43.1923 78.9094 42.8023C78.8397 42.4124 78.6651 42.0489 78.4043 41.7512C78.1435 41.4534 77.8065 41.2326 77.4296 41.1127C77.2429 41.1127 77.1729 40.8087 77.4296 40.5515C79.1104 38.9612 79.764 39.2652 79.2037 38.2128C78.8096 37.491 78.1848 36.9227 77.4296 36.5992C76.5637 36.2933 75.6609 36.1045 74.7451 36.0379C74.0682 36.0379 74.1382 35.6871 74.9319 35.1025C76.0881 34.4502 77.2806 33.8646 78.5034 33.3485C78.4856 33.0911 78.409 32.8413 78.2795 32.6183C78.15 32.3952 77.971 32.205 77.7564 32.0623C76.2175 30.891 74.3183 30.2954 72.3874 30.3785C71.3837 30.3785 71.3136 30.1914 72.2474 29.5366C73.5177 28.7632 74.9054 28.2023 76.3558 27.8762H76.5893C76.6409 27.8649 76.6863 27.8346 76.7166 27.7912C76.7469 27.7479 76.7598 27.6947 76.7527 27.6423L76.5893 27.2681C75.3521 25.3973 72.6442 25.7013 70.6834 25.7013C69.2827 25.7013 68.9559 25.7013 70.0764 24.7424C71.5471 23.503 73.5313 22.0998 74.2783 21.6087C75.0253 21.1176 74.7918 21.4684 75.0719 21.7958C77.1262 24.1344 81.2813 34.8452 82.075 34.8452C83.3122 34.8452 81.4681 29.4898 80.9078 28.0165C80.0531 25.3188 78.6902 22.8102 76.8927 20.6265C76.8124 20.4628 76.7706 20.2827 76.7706 20.1003C76.7706 19.9179 76.8124 19.7378 76.8927 19.5741C80.9078 15.5517 85.4131 12.7454 89.4983 8.55925C89.6392 8.39584 89.825 8.27765 90.0326 8.21942C90.2402 8.16119 90.4603 8.16551 90.6654 8.23184C93.3966 9.91564 98.2988 12.2075 98.2988 12.2075C98.2988 12.2075 104.882 7.78751 110.157 9.19067C111.051 9.53646 111.773 10.2214 112.167 11.097C112.56 11.9726 112.593 12.9682 112.258 13.8679L112.071 14.2888C110.788 17.0016 106.399 22.3804 97.4584 19.9717C95.9878 19.5741 93.3966 18.4983 93.3966 18.4983C92.724 19.6254 92.1462 20.8066 91.6692 22.0297C91.296 23.1894 90.9843 24.3682 90.7355 25.561C92.8473 23.91 95.1146 22.4689 97.5051 21.2579C100.569 23.5844 104.024 25.3427 107.706 26.4496C107.785 26.4765 107.851 26.5326 107.89 26.6065C107.929 26.6805 107.939 26.7666 107.916 26.8472C107.468 27.9889 106.757 29.008 105.84 29.821C104.923 30.634 103.826 31.2178 102.641 31.5244C100.946 31.8362 99.2874 32.3221 97.6918 32.9743C97.6918 32.9743 103.598 36.529 108.29 46.8891C108.833 48.2877 109.872 49.4366 111.208 50.1164C110.635 51.1688 109.721 51.9939 108.617 52.455C107.059 53.2361 105.259 53.3787 103.598 52.8526C102.08 52.3848 98.042 45.1117 96.2212 42.2586C95.2855 40.182 93.6254 38.5189 91.5525 37.5814C91.3831 37.636 91.2291 37.7302 91.1032 37.8563C90.9774 37.9824 90.8833 38.1367 90.8288 38.3064C90.432 44.0126 91.249 54.6767 91.1323 60.4063C90.8095 60.567 90.454 60.6506 90.0935 60.6506C89.7331 60.6506 89.3775 60.567 89.0547 60.4063C89.0547 58.7225 89.0547 51.2155 89.0547 51.2155L85.3664 54.5363C85.3027 54.6689 85.1976 54.7771 85.0671 54.8446C84.9365 54.9121 84.7876 54.9353 84.6428 54.9105ZM81.8883 47.2633C82.9387 47.5907 89.1014 48.8535 89.1014 48.8535V44.1763C89.1014 40.2007 89.2648 36.0145 89.1014 32.0389C88.9792 34.1879 88.3559 36.2783 87.2817 38.1425C86.2074 40.0066 84.712 41.5926 82.9154 42.7731C80.581 44.4102 79.2037 45.9536 79.4372 46.3512C80.168 46.8545 81.0084 47.1753 81.8883 47.2867V47.2633ZM86.557 21.8893C87.7008 24.5086 89.3115 29.0923 89.3115 29.0923C89.3111 25.2165 90.3512 21.412 92.3228 18.0774C90.3437 17.2168 88.4319 16.2084 86.6037 15.0606C86.4 14.9264 86.1674 14.8425 85.9251 14.8159C85.6828 14.7893 85.4377 14.8206 85.2098 14.9074C84.9819 14.9941 84.7779 15.1338 84.6144 15.3149C84.4509 15.496 84.3326 15.7134 84.2693 15.9493C83.8725 17.446 85.3198 19.2701 86.4402 21.8893H86.557ZM90.8755 35.617C92.2845 34.175 93.926 32.9812 95.731 32.0857C96.5426 31.9747 97.2878 31.5765 97.8319 30.9631C97.3599 30.0063 96.6705 29.1736 95.8192 28.5319C94.9679 27.8902 93.9783 27.4574 92.9298 27.2681C92.7566 27.1954 92.5708 27.1576 92.3831 27.157C92.1953 27.1564 92.0093 27.1931 91.8358 27.2648C91.6622 27.3365 91.5045 27.4419 91.3717 27.575C91.239 27.708 91.1338 27.866 91.0623 28.0399V28.1802C90.836 30.6288 90.7502 33.0884 90.8055 35.5468L90.8755 35.617ZM99.6994 12.8623C99.6994 12.8623 107.823 16.9549 109.41 13.751C110.017 12.5115 108.29 11.5761 107.239 11.4124C104.905 10.8511 99.6994 12.8155 99.6994 12.8155V12.8623ZM112.865 36.8097C113.183 34.868 113.071 32.8803 112.538 30.9865C112.016 30.391 111.419 29.8645 110.764 29.4197C110.691 29.3665 110.63 29.2993 110.583 29.2221C110.537 29.1448 110.506 29.059 110.493 28.9697C110.48 28.8804 110.485 28.7894 110.507 28.702C110.53 28.6147 110.57 28.5327 110.624 28.4608L114.943 24.2279C115.34 23.8304 119.611 27.0343 120.639 27.9463C121.035 28.2971 119.611 28.2036 119.495 32.6236C119.495 34.7751 119.495 44.9714 119.495 46.6552C120.239 47.2768 121.018 47.8547 121.829 48.3858C121.922 48.4354 121.991 48.52 122.022 48.6208C122.053 48.7217 122.042 48.8306 121.992 48.9237L117.324 53.3904C117.199 53.5038 117.037 53.5666 116.869 53.5666C116.7 53.5666 116.538 53.5038 116.413 53.3904C114.754 51.8003 112.957 50.3603 111.044 49.0874C110.811 48.9471 111.044 48.6197 111.044 48.456C111.538 48.12 111.913 47.6374 112.118 47.0762C112.305 46.5617 112.585 39.7797 112.748 36.8564L112.865 36.8097ZM111.885 22.9417C113.939 20.8136 115.456 18.1242 118.141 16.9081C119.075 16.3468 120.662 15.388 121.409 16.6275C120.281 18.9065 118.376 20.7063 116.04 21.7022C114.823 22.2747 113.567 22.7592 112.282 23.1522C112.118 23.3159 111.885 22.9183 111.885 22.9183V22.9417ZM122.693 29.0455C124.07 27.0343 125.494 24.3683 127.992 24.2279C129.486 25.5843 131.773 28.2737 131.773 28.2737C134.693 27.6799 137.41 26.343 139.664 24.3916C141.911 25.0066 144.08 25.8776 146.13 26.9875C146.281 27.1413 146.384 27.3364 146.426 27.5486C146.467 27.7607 146.446 27.9804 146.363 28.1802C145.476 29.3963 144.542 32.8574 145.126 45.1819C145.435 46.2428 146.137 47.1459 147.087 47.7076C147.927 48.2455 148.161 48.4092 147.087 49.2745C145.766 50.5758 144.519 51.9499 143.352 53.3904C142.885 53.8815 142.862 54.2557 141.975 53.3904C141.087 52.5251 138.66 50.7478 137.516 49.8124C137.417 49.7329 137.335 49.6347 137.275 49.5233C137.214 49.4119 137.176 49.2896 137.163 49.1634C137.15 49.0373 137.162 48.9098 137.199 48.7884C137.235 48.6669 137.295 48.5539 137.376 48.456C137.925 47.8667 138.353 47.1755 138.636 46.4214C139.02 41.7473 138.934 37.0465 138.38 32.3897C136.171 31.59 133.86 31.1097 131.517 30.9631C131.517 30.9631 131.283 44.9948 131.517 46.4681C131.787 47.4532 132.433 48.2928 133.314 48.8067C133.944 49.2277 134.248 49.4148 133.314 49.9761C131.786 51.0458 130.411 52.3205 129.229 53.7646C128.715 54.5597 128.389 54.0452 128.179 53.7646C126.966 52.3611 125.63 51.0697 124.187 49.9059C123.743 49.5785 123.743 49.368 123.953 49.0874C124.439 48.4425 124.781 47.7009 124.957 46.9125C125.386 43.0305 125.558 39.1242 125.471 35.2194C125.471 30.3317 122.226 29.7705 122.693 28.9753V29.0455ZM171.481 54.7702C171.201 56.6645 168.75 55.8694 167.699 57.7169C167.117 59.208 166.189 60.5387 164.991 61.599C162.237 63.5868 157.638 62.511 155.374 61.599C153.357 61.0293 151.476 60.059 149.841 58.7458C148.908 57.787 148.791 57.062 149.304 56.4072C150.868 54.5831 153.973 51.3558 153.973 51.3558C152.344 50.26 150.653 49.2605 148.908 48.3624C148.675 48.2581 148.483 48.0805 148.361 47.8567C148.239 47.6329 148.193 47.3752 148.231 47.123C148.8 46.3865 149.307 45.6043 149.748 44.7843C150.296 40.0137 150.296 35.1959 149.748 30.4253C149.665 29.9444 149.75 29.4496 149.988 29.0239C150.226 28.5981 150.603 28.2672 151.055 28.0867C156.004 25.748 158.058 23.199 159.062 23.4094C159.622 23.5731 158.712 24.5086 164.431 26.2625C166.422 26.9637 168.467 27.4956 170.547 27.8528C170.796 27.9424 171.023 28.082 171.216 28.263C171.409 28.444 171.562 28.6625 171.668 28.9052C171.203 29.7106 170.696 30.4912 170.15 31.2438C169.648 32.4521 169.387 33.747 169.38 35.0557C169.38 41.7675 171.878 48.0818 171.481 54.7702ZM165.248 56.1968C165.14 53.4863 164.733 50.796 164.034 48.1753C162.656 49.9915 160.993 51.5712 159.109 52.8526C157.69 52.8995 156.28 52.6026 155 51.9873C154.644 52.3076 154.355 52.6961 154.151 53.1298C153.946 53.5635 153.83 54.0338 153.81 54.513C154.02 55.6121 159.739 57.8806 162.377 57.8338C162.973 57.8811 163.569 57.7424 164.083 57.4367C164.597 57.1311 165.004 56.6734 165.248 56.1266V56.1968ZM156.424 39.312C156.261 40.9958 155.747 43.1239 156.821 44.34C158.268 46.1875 161.21 48.5261 163.544 46.1875C162.867 43.2876 163.964 34.4944 163.311 33.2082C162.657 31.922 159.926 31.7583 157.638 30.8696C157.486 30.8232 157.327 30.8076 157.169 30.8238C157.011 30.84 156.858 30.8876 156.719 30.9639C156.58 31.0401 156.457 31.1435 156.359 31.2678C156.26 31.3922 156.187 31.5351 156.144 31.6881C155.981 34.2138 156.611 36.7161 156.448 39.2418L156.424 39.312ZM193.54 48.3156C190.436 49.789 186.024 53.2969 183.269 54.4194C182.989 54.4194 182.942 54.6533 182.662 54.4194C179.213 53.078 175.898 51.4101 172.765 49.4382C172.683 49.2832 172.64 49.1106 172.64 48.9354C172.64 48.7601 172.683 48.5875 172.765 48.4326C173.473 47.7659 173.927 46.8727 174.049 45.9069C174.418 42.6902 174.418 39.4417 174.049 36.225C173.512 33.3018 173.278 32.1558 174.889 31.197C176.556 30.3688 177.991 29.1394 179.067 27.6189C178.642 26.4695 178.307 25.2889 178.064 24.0876C177.433 18.6854 186.771 13.3534 188.195 13.33C190.529 13.33 192.187 16.2767 192.863 18.4048C193.723 21.4343 193.609 24.6582 192.537 27.6189C192.911 28.1351 193.209 28.7021 193.424 29.3027C194.241 32.5768 192.607 38.6572 194.147 47.1463C194.184 47.3779 194.148 47.6152 194.043 47.8249C193.938 48.0346 193.771 48.2062 193.564 48.3156H193.54ZM186.537 33.5122C185.065 31.8337 183.26 30.4799 181.238 29.5366C181.011 29.8474 180.823 30.1852 180.678 30.5422C179.674 33.1614 179.838 40.5982 181.238 45.6262C181.682 47.1463 187.915 48.8068 187.915 47.9649C187.915 43.6384 187.751 35.8275 186.537 33.5122ZM186.537 15.2477C183.759 16.113 183.666 19.4806 184.67 21.6087C186.187 23.9473 188.988 24.6489 191.323 26.4262C193.517 21.4216 189.105 14.4292 186.654 15.2477H186.537ZM304.632 53.7646C301.787 52.1267 298.84 50.6738 295.809 49.4148C295.132 49.0172 295.972 48.1753 296.252 47.3568C296.659 45.1444 296.792 42.8901 296.649 40.645C296.462 38.0024 296.205 32.951 296.089 30.9398C296.049 30.6746 296.092 30.4036 296.214 30.1646C296.335 29.9255 296.528 29.7305 296.766 29.6068C299.466 28.3511 301.967 26.7042 304.189 24.7191C304.324 24.6279 304.478 24.5662 304.638 24.538C304.799 24.5098 304.964 24.5157 305.123 24.5554C308.738 25.3688 312.226 26.675 315.487 28.4374C315.578 28.5554 315.64 28.6929 315.668 28.8391C315.696 28.9852 315.69 29.1359 315.651 29.2793C313.97 31.9687 314.367 40.6216 314.647 42.3054C315.015 43.8484 315.304 45.4096 315.51 46.9826C315.509 47.1359 315.47 47.2865 315.396 47.421C315.323 47.5556 315.218 47.6701 315.09 47.7544C312.079 49.7422 309.488 51.7768 306.453 54.0452C305.825 54.1777 305.17 54.078 304.609 53.7646H304.632ZM302.765 45.6496C302.765 45.6496 306.477 47.4971 308.157 48.1753C308.35 48.1633 308.535 48.0916 308.685 47.9702C308.836 47.8487 308.945 47.6834 308.998 47.4971C309.253 42.5785 309.057 37.6468 308.414 32.7639C308.414 32.7639 305.193 31.805 303.348 31.4075C303.141 31.4493 302.951 31.5516 302.801 31.7013C302.652 31.8511 302.55 32.0418 302.508 32.2494C302.281 34.8201 302.336 37.408 302.671 39.9668C302.835 42.0248 302.671 45.6496 302.671 45.6496H302.765ZM205.446 54.0452C202.601 52.4069 199.653 50.9539 196.622 49.6954C195.945 49.2979 196.785 48.456 197.065 47.6374C197.497 42.676 197.583 37.6905 197.322 32.7171C197.192 32.1774 197.028 31.6463 196.832 31.1268C196.816 30.8793 196.866 30.6321 196.977 30.4102C197.088 30.1884 197.255 29.9999 197.462 29.864C200.061 28.4326 202.543 26.7983 204.885 24.9763C205.034 24.876 205.204 24.8093 205.381 24.7811C205.558 24.7528 205.74 24.7636 205.913 24.8126C207.85 25.3271 210.815 26.8706 216.23 28.6947C216.581 28.6947 216.627 29.139 216.394 29.5366C214.713 32.226 215.11 40.8789 215.39 42.5627C215.67 44.2465 216.207 45.5327 216.254 47.2399C216.257 47.4245 216.214 47.607 216.128 47.7705C216.042 47.934 215.917 48.0732 215.763 48.1753C212.799 50.1398 210.231 52.1744 207.196 54.396C206.59 54.4865 205.971 54.3625 205.446 54.0452ZM203.391 45.8367C203.391 45.8367 207.056 47.8011 208.69 48.5261C208.881 48.5189 209.065 48.455 209.218 48.3425C209.372 48.23 209.489 48.0741 209.554 47.8947C210.004 42.9861 210.004 38.0466 209.554 33.1381C207.912 32.5334 206.236 32.0258 204.535 31.618C204.327 31.654 204.134 31.7509 203.98 31.8965C203.826 32.0421 203.719 32.23 203.672 32.4365C203.385 36.9051 203.323 41.3852 203.485 45.8601L203.391 45.8367ZM338.107 54.3726C335.936 52.6655 333.648 51.3325 332.084 50.0228C331.244 49.3446 332.248 48.339 332.528 47.2165C333.163 43.1411 333.351 39.0083 333.088 34.892C333.088 33.2082 333.088 32.5534 331.571 32.3195C330.133 32.0372 328.67 31.904 327.206 31.922C327.049 31.9464 326.906 32.0214 326.796 32.1354C326.686 32.2494 326.617 32.3962 326.599 32.5534C325.947 37.2078 325.947 41.9306 326.599 46.5851C326.995 47.427 328.933 48.9237 328.933 49.1575C327.9 50.8962 326.77 52.5749 325.548 54.1856C325.524 54.2316 325.49 54.2724 325.45 54.3056C325.41 54.3387 325.363 54.3636 325.314 54.3788C325.264 54.394 325.211 54.3992 325.16 54.3942C325.108 54.3891 325.057 54.3738 325.011 54.3493C323.751 53.6009 318.965 50.6075 318.919 48.6664C319.156 47.6785 319.542 46.7323 320.062 45.8601C320.472 41.5446 320.37 37.1957 319.759 32.9042C319.6 32.2515 319.289 31.6459 318.851 31.1376C318.412 30.6293 317.859 30.2328 317.238 29.9809C317.055 29.8149 316.94 29.5871 316.914 29.3412C316.888 29.0953 316.954 28.8485 317.098 28.6479C317.285 28.5076 321.323 25.561 322.14 24.9295C322.187 24.9049 322.239 24.8921 322.292 24.8921C322.345 24.8921 322.397 24.9049 322.443 24.9295C324.009 25.5903 325.393 26.6166 326.482 27.923C326.891 28.3338 327.153 28.8679 327.229 29.443C329.495 28.3561 331.701 27.146 333.835 25.8182C335.516 24.6489 337.874 27.0109 338.504 27.6891C339.085 28.2833 339.49 29.0285 339.671 29.8406C340.488 29.139 344.083 26.2392 344.69 25.8182C344.991 25.5617 345.366 25.4076 345.76 25.3782C346.155 25.3488 346.548 25.4455 346.884 25.6545C348.749 26.8097 350.71 27.8033 352.743 28.6245C354.588 29.4664 352.743 30.2849 352.253 31.4543C351.517 34.968 351.165 38.5516 351.203 42.1417C351.203 44.2698 350.713 47.3802 353.724 48.456C354.097 48.456 354.377 48.456 353.724 49.3914C352.51 50.8881 350.362 53.2735 349.592 54.0686C349.523 54.1589 349.424 54.2222 349.314 54.2478C349.203 54.2734 349.087 54.2596 348.985 54.2089C347.655 53.5541 343.453 50.3035 344.153 48.4793C344.573 47.9064 344.926 47.2864 345.203 46.6318C345.704 42.5272 345.953 38.3957 345.95 34.2606C345.39 32.5066 339.298 32.1558 339.298 32.1558C338.998 33.3221 338.795 34.511 338.691 35.7105C338.43 39.4068 338.681 43.1216 339.438 46.7488C340.009 47.8061 340.806 48.7244 341.772 49.4382C340.698 51.4494 339.788 52.2913 338.737 53.9751C338.685 54.1175 338.582 54.236 338.449 54.309C338.317 54.382 338.162 54.4046 338.014 54.3726H338.107ZM238.43 54.5363C236.214 53.4012 234.183 51.9344 232.407 50.1865C231.567 49.5083 232.571 48.5027 232.851 47.3802C233.487 42.8177 233.643 38.201 233.318 33.6058C232.716 32.6668 231.826 31.9491 230.782 31.561C229.738 31.173 228.596 31.1355 227.529 31.4543C227.308 31.5829 227.12 31.7625 226.982 31.978C226.844 32.1935 226.76 32.4389 226.735 32.6937C226.453 37.3121 226.453 41.9433 226.735 46.5617C227.421 47.5705 228.202 48.5104 229.069 49.368C227.858 50.9241 226.54 52.3932 225.124 53.7646C225.1 53.8107 225.066 53.8515 225.026 53.8846C224.986 53.9178 224.939 53.9427 224.89 53.9579C224.84 53.9731 224.787 53.9783 224.736 53.9732C224.684 53.9681 224.633 53.9529 224.587 53.9283C223.56 53.3203 220.806 49.9994 218.705 48.6197C218.355 48.3858 218.425 47.9882 218.705 47.6141C219.363 47.2679 219.9 46.7296 220.245 46.0706C220.555 41.4972 220.492 36.9062 220.059 32.3429C219.919 30.168 218.775 30.7059 217.421 30.1914C217.238 30.0253 217.123 29.7976 217.097 29.5517C217.071 29.3058 217.137 29.059 217.281 28.8584C217.468 28.7181 221.506 25.7714 222.323 25.14C222.37 25.1154 222.422 25.1026 222.475 25.1026C222.528 25.1026 222.58 25.1154 222.626 25.14C224.156 25.4668 225.559 26.2303 226.665 27.3383C227.074 27.7491 227.336 28.2833 227.412 28.8584C229.579 27.9237 231.612 26.7047 233.458 25.2335C233.668 25.0416 233.945 24.9407 234.228 24.9529C235.955 25.1729 237.578 25.8967 238.897 27.0343C239.478 27.6285 239.883 28.3737 240.064 29.1858C242.613 28.56 244.939 27.2408 246.787 25.3739C247.791 24.4384 248.094 24.4852 248.981 25.2102C250.5 26.2986 252.156 27.1795 253.907 27.8294C255.004 28.3907 254.444 28.4141 254.047 28.9286C253.536 29.3869 253.081 29.9051 252.693 30.472C252.102 33.8764 251.852 37.3312 251.946 40.7853C251.949 42.7867 252.073 44.786 252.319 46.7722C252.734 47.5282 253.327 48.1706 254.047 48.643C254.654 49.0406 254.794 49.1809 254.327 49.7656C253.113 51.2623 251.386 52.7824 250.615 53.6243C250.546 53.7145 250.448 53.7778 250.337 53.8034C250.226 53.829 250.11 53.8153 250.008 53.7646C248.678 53.1098 244.079 50.701 244.78 48.8535C245.201 48.2812 245.554 47.6611 245.83 47.006C245.993 45.7198 246.04 42.4925 246.04 41.253C246.04 38.1193 246.157 34.2372 246.04 33.3953C245.923 32.5534 241.371 31.7817 239.527 32.0155C239.226 33.293 239.015 34.5903 238.897 35.8976C238.638 39.5862 238.89 43.2929 239.644 46.9125C240.216 47.9694 241.013 48.8875 241.978 49.6019C240.904 51.6131 239.994 52.455 238.944 54.1388C238.882 54.257 238.787 54.3551 238.671 54.4213C238.555 54.4876 238.423 54.5194 238.29 54.513L238.43 54.5363ZM372.469 47.0294C373.029 47.0294 373.519 47.2633 372.866 47.8713C369.948 49.3914 369.107 52.2913 366.75 53.8348C366.652 53.886 366.544 53.9127 366.434 53.9127C366.325 53.9127 366.216 53.886 366.119 53.8348C363.903 52.8482 361.635 51.9817 359.326 51.2389C357.576 50.6075 356.992 50.7244 356.455 50.4204C356.266 50.3608 356.106 50.2303 356.011 50.056C355.915 49.8817 355.89 49.6771 355.941 49.4849V49.3446C357.365 45.6964 356.385 33.6993 356.759 30.9164C356.78 30.5903 356.897 30.2779 357.097 30.0195C357.297 29.7611 357.569 29.5685 357.879 29.4664C360.657 28.4608 362.548 26.2625 365.069 24.7892C365.147 24.7339 365.241 24.7042 365.337 24.7042C365.433 24.7042 365.527 24.7339 365.606 24.7892C367.75 27.3825 370.049 29.8426 372.492 32.1558C372.803 32.2977 373.057 32.5423 373.21 32.8488C373.363 33.1553 373.406 33.505 373.332 33.8396C370.998 37.4645 363.061 43.5215 363.061 43.5215C363.115 44.7702 363.631 45.9541 364.509 46.8423C365.99 47.5249 367.563 47.9896 369.177 48.2221C370.17 47.6903 371.23 47.2969 372.329 47.0528L372.469 47.0294ZM362.875 41.0893C362.875 41.0893 367.286 38.4701 366.843 36.6226C366.179 35.1031 365.162 33.7642 363.878 32.7171C363.715 32.4832 363.341 32.7171 362.921 32.9042C362.614 35.5848 362.614 38.2918 362.921 40.9724L362.875 41.0893ZM298.213 16.0194C296.929 16.0194 290.299 10.4769 288.245 9.00358C288.125 8.95662 287.992 8.95662 287.872 9.00358C281.128 9.9485 274.579 11.9697 268.473 14.9904C265.869 16.1771 263.46 17.7543 261.33 19.6677C259.647 21.2441 258.407 23.2362 257.735 25.444C256.591 29.1156 253.51 47.9649 279.141 57.3661C281.437 58.0311 283.882 57.974 286.144 57.2024C290.048 55.3568 293.433 52.5683 295.995 49.0874C296.229 48.7366 296.812 47.6608 294.991 49.2277C293.171 50.7946 288.292 51.3325 285.654 51.0518C283.491 50.6629 281.399 49.9536 279.445 48.9471C279.445 48.9471 279.445 40.0837 279.748 38.5402C280.052 36.9968 281.219 37.1839 281.219 37.1839C281.219 40.224 280.892 43.7787 280.892 46.7488C280.892 47.0528 281.382 47.1229 281.779 46.8657C282.824 46.0038 283.932 45.222 285.094 44.5271C286.098 43.9658 289.763 42.4925 289.903 42.3522C290.183 41.7675 287.568 42.3522 287.241 41.1829C286.728 36.5057 287.241 31.501 286.845 26.8706C286.845 24.3449 286.845 17.5161 286.845 17.5161C288.556 19.4511 290.43 21.235 292.447 22.8482C293.178 21.9264 293.957 21.0442 294.781 20.2055C296.719 18.475 298.073 17.6798 298.75 16.8145C298.784 16.7266 298.796 16.6317 298.785 16.538C298.775 16.4443 298.741 16.3545 298.689 16.2764C298.636 16.1983 298.565 16.1342 298.482 16.0894C298.399 16.0446 298.307 16.0206 298.213 16.0194ZM275.476 47.0762C264.458 39.6394 261.003 29.1624 264.481 22.0063C266.5 18.5164 269.787 15.9437 273.655 14.8267C273.889 14.8267 274.216 14.663 274.216 14.9904C274.1 15.3075 274.1 15.6556 274.216 15.9726C275.523 17.2355 277.367 18.3113 277.647 20.0886C277.647 20.0886 277.647 20.2523 277.32 20.0886C276.994 19.9249 272.652 18.5217 271.951 19.2701C272.125 19.4343 272.312 19.583 272.512 19.7144C274.319 21.0713 275.657 22.9601 276.34 25.1166C276.34 25.1166 276.34 25.3271 276.34 25.3037C276.34 25.2803 273.282 24.4618 273.025 25.0231C273.162 25.1827 273.319 25.3241 273.492 25.444C275.07 26.8769 276.258 28.6873 276.947 30.7059V30.8462C275.896 30.6825 273.889 30.2382 273.889 30.8462C273.93 30.9905 274.011 31.1202 274.122 31.2204C275.538 32.6906 276.642 34.4328 277.367 36.342C276.807 36.342 274.052 35.921 274.262 36.529C274.324 36.6563 274.402 36.7743 274.496 36.8798C275.675 38.4435 276.576 40.2001 277.157 42.0715C276.643 42.2353 274.099 42.0715 274.543 42.586C275.751 44.2287 276.638 46.0855 277.157 48.0584C277.157 48.0584 275.85 47.31 275.476 47.0762ZM280.845 23.3627C280.845 23.3627 280.098 23.7368 279.865 22.4974C279.561 21.024 279.281 14.0082 279.281 14.0082L281.125 13.6574L280.845 23.3627ZM181.355 79.4893C181.137 76.3048 181.137 73.109 181.355 69.9244C181.355 69.5268 181.915 69.1761 182.055 68.7317C182.092 68.63 182.104 68.5214 182.091 68.4141C182.079 68.3069 182.042 68.204 181.983 68.1135C181.924 68.023 181.846 67.9473 181.753 67.8923C181.66 67.8372 181.556 67.8044 181.448 67.7963C179.237 67.3055 177.101 66.5189 175.099 65.4577C174.656 65.294 169.8 67.6793 169.73 69.4099C169.66 71.1405 173.068 72.4735 175.262 73.0348C177.457 73.596 179.418 73.713 179.324 73.3154C178.054 73.1178 176.799 72.8365 175.566 72.4735C173.932 71.7719 171.644 70.4389 171.738 69.7139C171.828 69.4283 172.015 69.1832 172.266 69.0209C172.518 68.8587 172.818 68.7895 173.115 68.8253C173.652 68.8253 177.48 69.9478 177.55 71.1639C177.75 73.8183 177.75 76.4841 177.55 79.1385C177.387 80.4248 177.55 80.8691 176.78 80.9159C176.077 81.107 175.328 81.0192 174.689 80.6706C174.05 80.3221 173.569 79.7397 173.348 79.045C173.348 78.5539 173.348 75.6072 173.348 73.292C173.348 73.0348 174.142 71.9824 174.049 71.8888C173.673 71.878 173.3 71.9475 172.954 72.0927C172.608 72.2379 172.297 72.4554 172.041 72.7307C171.341 73.1751 170.664 73.7597 169.963 74.2275C169.902 74.2681 169.853 74.324 169.82 74.3897C169.788 74.4553 169.773 74.5284 169.777 74.6016C169.832 76.3285 169.746 78.0571 169.52 79.77C169.134 80.3883 168.835 81.0573 168.633 81.7578C169.043 82.4224 169.599 82.9847 170.258 83.402C170.917 83.8194 171.663 84.0808 172.438 84.1665C172.822 84.3079 173.244 84.3079 173.628 84.1665C174.609 83.6287 175.473 82.8569 176.406 82.319C176.911 82.2412 177.428 82.3316 177.877 82.5763C178.403 83.0789 178.902 83.6098 179.371 84.1665C179.534 84.1665 179.558 84.1665 179.721 84.1665C181.004 83.4331 182.074 82.3772 182.826 81.103C182.291 80.6072 181.799 80.0675 181.355 79.4893ZM110.227 80.9627C110.295 80.9454 110.367 80.9522 110.431 80.982C110.494 81.0118 110.546 81.0627 110.576 81.1261C110.606 81.1896 110.613 81.2615 110.597 81.3298C110.58 81.398 110.54 81.4584 110.484 81.5005C109.41 82.5295 107.543 84.2133 106.889 84.8214C106.818 84.8728 106.732 84.9004 106.644 84.9004C106.556 84.9004 106.47 84.8728 106.399 84.8214C104.241 83.5885 101.861 82.7938 99.3959 82.4827C99.2326 82.3204 99.1332 82.1045 99.1158 81.8747C100.19 79.9103 99.5126 71.7485 99.7461 69.901C99.7807 69.7008 99.8623 69.5116 99.984 69.349C100.106 69.1864 100.264 69.055 100.446 68.9656C102.114 68.0545 103.714 67.0228 105.232 65.8786C106.816 67.4216 108.32 69.0451 109.737 70.7429C110.046 71.0203 110.238 71.4048 110.274 71.8187C108.293 74.0703 106.105 76.1296 103.738 77.9692C103.602 78.3665 103.626 78.8012 103.804 79.1811C103.983 79.561 104.302 79.8562 104.695 80.0038C105.862 80.3546 107.029 80.7756 108.43 81.1731C109.01 81.3083 109.619 81.2162 110.134 80.9159L110.227 80.9627ZM103.971 76.4491C104.55 76.1998 105.063 75.8183 105.468 75.3351C105.873 74.8519 106.16 74.2803 106.306 73.6662C105.93 72.7242 105.289 71.9118 104.461 71.3276C104.288 71.2631 104.098 71.2631 103.925 71.3276C103.775 73.0189 103.822 74.7219 104.065 76.4024L103.971 76.4491ZM155.327 80.9627C155.395 80.9454 155.467 80.9522 155.53 80.982C155.594 81.0118 155.645 81.0627 155.676 81.1261C155.706 81.1896 155.713 81.2615 155.696 81.3298C155.68 81.398 155.64 81.4584 155.584 81.5005C154.51 82.5295 152.643 84.2133 151.989 84.8214C151.917 84.8728 151.832 84.9004 151.744 84.9004C151.656 84.9004 151.57 84.8728 151.499 84.8214C149.34 83.5885 146.961 82.7938 144.496 82.4827C144.332 82.3204 144.233 82.1045 144.216 81.8747C145.289 79.9103 144.612 71.7485 144.846 69.901C144.88 69.7008 144.962 69.5116 145.084 69.349C145.205 69.1864 145.364 69.055 145.546 68.9656C147.214 68.0545 148.813 67.0228 150.332 65.8786C151.914 67.3988 153.417 68.9989 154.837 70.6728C155.147 70.9486 155.34 71.334 155.374 71.7485C153.393 74.0001 151.205 76.0594 148.838 77.8991C148.701 78.2963 148.725 78.731 148.904 79.111C149.083 79.4909 149.402 79.786 149.795 79.9337C150.962 80.2845 152.129 80.7054 153.53 81.103C154.11 81.2381 154.719 81.1461 155.234 80.8457L155.327 80.9627ZM149.188 76.379C149.767 76.1297 150.279 75.7482 150.684 75.2649C151.09 74.7817 151.377 74.2102 151.522 73.596C151.146 72.6541 150.506 71.8416 149.678 71.2574C149.505 71.1929 149.314 71.1929 149.141 71.2574C148.991 72.9487 149.038 74.6517 149.281 76.3322L149.188 76.379ZM222.253 80.8925C222.321 80.8752 222.393 80.882 222.456 80.9118C222.52 80.9417 222.571 80.9926 222.601 81.056C222.632 81.1194 222.639 81.1914 222.622 81.2596C222.606 81.3279 222.566 81.3882 222.51 81.4304C221.436 82.4594 219.545 84.1432 218.915 84.7512C218.843 84.8026 218.758 84.8302 218.67 84.8302C218.582 84.8302 218.496 84.8026 218.425 84.7512C216.266 83.5183 213.887 82.7236 211.422 82.4126C211.258 82.2502 211.159 82.0344 211.141 81.8046C212.215 79.8401 211.538 71.6784 211.772 69.8309C211.806 69.6306 211.888 69.4414 212.01 69.2788C212.131 69.1162 212.29 68.9848 212.472 68.8954C214.112 68.0354 215.674 67.0338 217.141 65.902C217.192 65.8658 217.253 65.8463 217.316 65.8463C217.379 65.8463 217.44 65.8658 217.491 65.902C219.032 67.3519 220.409 68.8954 221.833 70.5792C222.143 70.8551 222.336 71.2405 222.37 71.655C220.389 73.9066 218.201 75.9659 215.834 77.8055C215.697 78.2028 215.721 78.6375 215.9 79.0174C216.079 79.3973 216.398 79.6925 216.791 79.8401C217.958 80.1909 219.125 80.6119 220.526 81.0094C221.109 81.1376 221.718 81.0371 222.23 80.7288L222.253 80.8925ZM215.997 76.379C216.576 76.1297 217.088 75.7482 217.494 75.2649C217.899 74.7817 218.186 74.2102 218.331 73.596C217.956 72.6541 217.315 71.8416 216.487 71.2574C216.314 71.1929 216.123 71.1929 215.95 71.2574C215.802 72.9488 215.849 74.6517 216.09 76.3322L215.997 76.379ZM115.62 84.798C115.565 84.8362 115.5 84.8567 115.433 84.8567C115.366 84.8567 115.301 84.8362 115.246 84.798C113.895 84.0676 112.672 83.1195 111.628 81.9916C111.044 81.2433 112.165 80.7522 112.165 80.0974C112.562 77.4314 112.445 63.3061 112.795 62.0667C113.145 60.8272 114.032 61.1546 116.693 59.0499C118.141 57.9039 118.421 59.0499 118.444 59.0499C117.931 59.6459 117.463 60.279 117.044 60.9441C116.488 67.2108 116.309 73.5052 116.507 79.7934C116.988 80.4793 117.64 81.0274 118.398 81.3836C118.701 81.6409 118.818 81.6642 118.631 81.9449C117.746 82.995 116.725 83.923 115.596 84.7044L115.62 84.798ZM120.989 80.1208C121.409 78.1329 121.409 76.262 121.409 74.3912C121.522 73.0885 121.339 71.777 120.872 70.5558C120.382 69.8776 119.822 69.9946 119.938 69.597C120.717 68.2621 121.881 67.1942 123.276 66.5334C123.712 66.6681 124.115 66.8914 124.46 67.1891C124.806 67.4869 125.086 67.8528 125.284 68.264C125.681 68.8019 124.654 69.5035 124.537 70.1583C124.432 73.4169 124.596 76.6787 125.027 79.9103C125.386 80.4582 125.827 80.9472 126.334 81.3602C126.392 81.4245 126.424 81.5078 126.424 81.5941C126.424 81.6804 126.392 81.7636 126.334 81.8279C125.631 82.9478 124.757 83.9501 123.743 84.798C122.439 84.0846 121.244 83.1867 120.195 82.132C120.032 82.015 120.055 81.8513 120.195 81.5941C120.539 81.1759 120.807 80.7011 120.989 80.1909V80.1208ZM119.728 66.2762C120.82 64.7684 122.182 63.476 123.743 62.4642C124.35 62.1836 125.331 61.5054 125.774 62.2771C124.819 63.6052 123.613 64.7333 122.226 65.598C121.57 66.047 120.819 66.3354 120.032 66.4399C120.032 66.5568 119.798 66.323 119.798 66.323L119.728 66.2762ZM142.955 68.9422C143.305 68.568 143.235 68.5212 142.955 68.4043C142.068 68.0068 139.64 66.2528 139.477 66.2294C138.167 66.8172 137.039 67.7459 136.209 68.9188C136.209 68.9188 136.209 69.0591 136.209 69.1527C136.846 69.4893 137.41 69.9505 137.866 70.5091C138.027 71.5925 138.073 72.6899 138.006 73.7831C138.006 74.8589 138.006 75.9113 138.006 76.987C138.226 78.224 138.366 79.4738 138.426 80.7288C138.401 80.8441 138.35 80.9522 138.277 81.0452C138.204 81.1383 138.112 81.2139 138.006 81.2667C136.176 80.4046 134.279 79.6929 132.334 79.1385C132.179 78.999 132.079 78.8079 132.054 78.6007C132.706 77.6116 133.306 76.589 133.851 75.5371C134.065 74.7769 134.16 73.9878 134.131 73.1985C134.111 72.6731 134.057 72.1497 133.968 71.6316C133.918 71.1254 133.825 70.6246 133.688 70.1349C133.548 69.7373 133.267 68.7551 133.244 68.7083C132.772 67.6887 132.517 66.5815 132.497 65.4577C132.497 64.2182 134.201 64.3819 134.458 63.3295C134.44 63.2352 134.399 63.147 134.338 63.0733C134.276 62.9996 134.197 62.9429 134.108 62.9086C131.572 64.0424 129.503 66.016 128.249 68.4979C129.294 70.8246 129.918 73.3189 130.093 75.8645C130.159 76.8653 130.016 77.8689 129.673 78.8111C129.322 79.8869 128.085 80.6586 127.828 81.7344C127.828 81.7344 128.085 82.132 128.365 82.2723C130.273 82.6177 132.115 83.2567 133.828 84.1665C134.558 84.515 135.267 84.9055 135.952 85.3359C136.072 85.4123 136.206 85.4641 136.346 85.4882C136.487 85.5123 136.63 85.5082 136.769 85.4762C138.197 84.5389 139.562 83.5077 140.854 82.3892C141.691 81.9281 142.324 81.1684 142.628 80.2611C143.165 76.9636 141.928 73.8533 142.208 70.5558C142.292 69.9579 142.561 69.4015 142.978 68.9656L142.955 68.9422ZM161.63 84.4706C159.972 84.0496 159.295 82.9037 157.521 82.9037C157.364 82.8967 157.212 82.8414 157.087 82.7452C156.961 82.649 156.869 82.5165 156.821 82.3658C157.099 81.7859 157.461 81.2501 157.895 80.7756C158.721 77.7229 158.817 74.518 158.175 71.4211C157.813 70.9835 157.423 70.5695 157.008 70.1817C157.383 68.6625 158.254 67.3125 159.482 66.3463C160.638 66.6466 161.648 67.3518 162.33 68.3342C162.587 68.5914 162.68 69.293 163.1 69.0124C164.174 68.4745 164.688 66.6737 166.042 66.6737C167.034 67.788 167.676 69.1711 167.886 70.6494C167.587 72.0888 166.844 73.3977 165.762 74.3912C165.643 74.4659 165.505 74.5055 165.365 74.5055C165.224 74.5055 165.087 74.4659 164.968 74.3912C164.707 73.2506 164.084 72.2251 163.194 71.4679C162.4 70.93 162.12 72.0058 162.12 72.5437C162.12 74.8823 162.12 79.045 162.003 79.7466C162.255 80.3114 162.708 80.7627 163.272 81.0132C163.837 81.2637 164.474 81.2957 165.061 81.103C165.318 81.103 165.411 81.5239 165.318 81.7812C164.104 83.1609 163.661 84.8915 161.653 84.6343L161.63 84.4706ZM183.666 69.1059C183.339 68.872 183.386 68.7083 183.479 68.568C184.483 67.5624 186.047 65.6214 186.351 65.5044C186.417 65.4761 186.489 65.4615 186.561 65.4615C186.633 65.4615 186.704 65.4761 186.771 65.5044C187.669 65.9072 188.497 66.452 189.222 67.1181C189.334 67.4896 189.389 67.876 189.385 68.264C191.082 67.6376 192.66 66.7283 194.054 65.5746C194.142 65.5004 194.254 65.4597 194.369 65.4597C194.484 65.4597 194.596 65.5004 194.684 65.5746C195.011 65.8864 195.371 66.1609 195.758 66.3931C197.439 67.1181 198.629 67.4221 198.326 67.9834C198.031 68.6364 197.804 69.3182 197.649 70.018C197.293 72.9382 197.293 75.8909 197.649 78.8111C197.977 79.6251 198.527 80.3302 199.236 80.8457C199.54 81.2199 199.61 81.2901 199.4 81.5941C198.67 82.4203 197.89 83.2012 197.065 83.9327C196.365 84.6109 196.132 84.7044 195.665 84.1899C194.72 83.3611 193.831 82.4705 193.004 81.5239C192.163 80.4014 193.004 80.2143 193.284 79.4893C193.587 76.5661 193.587 73.6194 193.284 70.6962C192.156 70.1351 190.923 69.8165 189.665 69.7607C189.222 69.7607 189.152 69.7607 189.129 70.2986C188.893 73.1805 188.94 76.0787 189.269 78.9515C189.543 79.5625 189.855 80.1561 190.202 80.7288C190.202 82.1553 188.615 83.0674 187.681 84.2835C187.59 84.3707 187.469 84.4193 187.343 84.4193C187.217 84.4193 187.095 84.3707 187.004 84.2835C185.963 83.5838 184.979 82.8018 184.063 81.9449C185.005 78.9202 185.423 75.7564 185.3 72.5904C185.351 71.9293 185.231 71.2662 184.953 70.6644C184.676 70.0626 184.248 69.5422 183.713 69.1527L183.666 69.1059ZM205.282 79.4893C206.449 79.8635 207.313 80.2611 208.644 80.6586C209.181 80.799 209.811 80.2611 210.348 80.378C210.488 80.5651 210.768 80.799 210.605 80.9159C209.434 82.203 208.153 83.3846 206.776 84.4472C204.932 83.9093 203.788 82.9505 201.921 82.4126C201.29 82.2255 199.703 82.4126 200.03 80.7288C200.319 76.9789 200.413 73.2164 200.31 69.4567C200.29 69.3568 200.289 69.2539 200.309 69.1539C200.328 69.0539 200.367 68.9587 200.424 68.874C200.48 68.7892 200.553 68.7164 200.638 68.6599C200.722 68.6033 200.817 68.5642 200.917 68.5446C202.433 67.7865 203.878 66.8943 205.236 65.8786C205.27 65.8555 205.311 65.8431 205.352 65.8431C205.394 65.8431 205.434 65.8555 205.469 65.8786C207.058 67.0427 208.773 68.0234 210.581 68.8019C210.146 70.149 209.232 71.2892 208.013 72.0058C207.004 71.6276 206.116 70.9808 205.446 70.1349C205.221 70.1201 204.996 70.1591 204.789 70.2485C204.582 70.338 204.399 70.4753 204.255 70.6494C203.882 72.4501 203.531 78.8579 205.236 79.3958L205.282 79.4893ZM97.0849 64.8964C96.9414 63.7893 96.3718 62.7823 95.4975 62.0901C94.2603 61.2248 85.5765 57.9273 83.3356 56.8048C82.9154 56.5943 89.8718 51.7066 89.8251 51.3792C89.6383 50.3268 82.822 53.2735 82.4485 53.484C82.075 53.6944 74.0915 58.4418 73.3212 59.8918C73.0411 60.453 78.7602 61.8094 83.5923 63.8908L84.8762 64.4754C84.8541 64.7131 84.7772 64.9425 84.6516 65.1453C84.5261 65.3482 84.3553 65.5192 84.1526 65.6448C82.4509 66.3998 80.6203 66.8205 78.7602 66.8842C77.5464 66.8842 77.6164 67.235 77.8732 67.5156C78.1443 67.7333 78.3944 67.976 78.6202 68.2406C78.9224 69.3399 79.1024 70.4693 79.1571 71.6082C79.3776 73.2837 79.177 74.9879 78.5735 76.5661C77.5767 78.1046 76.2635 79.4121 74.7218 80.4014C74.2549 80.7522 75.0252 80.8457 75.9123 80.9393C77.4723 81.1895 78.9653 81.7544 80.3009 82.5997C82.4929 83.9168 84.5631 85.4273 86.4869 87.1132C86.8136 87.2044 87.1616 87.1797 87.4721 87.0433C87.7827 86.9069 88.0366 86.6673 88.191 86.3648C89.1481 85.4294 93.42 82.4126 94.4704 81.6876C95.6358 81.1753 96.6491 80.3697 97.4117 79.349C97.8453 74.5345 97.7357 69.6863 97.0849 64.8964ZM84.5494 78.6942C83.282 78.2594 81.9875 77.9079 80.6744 77.6418C81.7735 76.748 82.7471 75.7096 83.569 74.5549C83.7557 74.1339 83.0321 67.843 83.0321 67.843C83.672 67.7168 84.2772 67.4535 84.8062 67.0713C85.0163 69.7373 84.5494 78.6942 84.5494 78.6942ZM91.9727 81.0328C91.9002 81.3465 91.7149 81.6224 91.4523 81.8079C91.1896 81.9934 90.8679 82.0755 90.5487 82.0384C89.1903 81.0072 87.708 80.1509 86.1368 79.4893L86.3936 64.9432C88.0581 65.5462 89.6297 66.3807 91.0623 67.4221C91.6892 68.5476 92.0412 69.8058 92.0894 71.0937C92.736 74.4223 92.736 77.8446 92.0894 81.1731L91.9727 81.0328Z" fill="white"/>
<path d="M9.57095 25.3505C10.3413 25.9819 11.0649 26.6133 11.9053 27.2214L12.839 28.2504L13.7961 29.1157C14.7046 30.3202 15.7119 31.4466 16.8074 32.4833C17.448 32.4155 18.0476 32.1357 18.5115 31.6881C20.0889 31.0143 21.7113 30.4516 23.367 30.0043C24.1003 29.9465 24.8186 29.7646 25.4912 29.4664C25.6964 28.0027 25.7667 26.5231 25.7013 25.0465C24.8392 24.4074 24.1951 23.5171 23.8572 22.4974C22.3866 17.6798 28.3625 15.1308 31.794 17.2121C32.6067 17.8994 33.1964 18.814 33.4874 19.8388C33.7785 20.8636 33.7579 21.9521 33.4281 22.9651C33.1246 23.6901 31.8874 24.3449 31.794 24.8126C31.7463 26.3787 31.8558 27.9457 32.1208 29.4898L32.3309 29.7237C33.8226 29.8752 35.3038 30.1173 36.7662 30.4487C38.3769 30.9865 39.6608 31.8752 41.1081 32.53C41.6223 32.3014 42.0367 31.8945 42.2753 31.3841C43.0994 30.324 43.98 29.3091 44.9131 28.3439C46.7202 26.4062 48.6711 24.6081 50.749 22.9651L53.2934 20.7902L56.048 18.6855C56.9264 18.279 57.7189 17.7074 58.3823 17.0017C56.048 16.3468 53.4802 16.1831 52.2663 17.8436H52.1029C51.978 17.4486 51.7695 17.0853 51.4915 16.7785C51.2135 16.4717 50.8726 16.2288 50.4922 16.0662C50.1972 16.0214 49.896 16.0422 49.61 16.1272C49.324 16.2122 49.0602 16.3592 48.8373 16.5579C48.6145 16.7566 48.4381 17.0021 48.3206 17.2768C48.2032 17.5516 48.1476 17.8489 48.1578 18.1476C48.4258 18.7766 48.8328 19.3363 49.3484 19.7846V19.9483C48.2512 20.6265 47.2241 21.4684 46.2203 22.2869C45.7497 22.574 45.3114 22.9112 44.9131 23.2925H44.6796L42.0418 20.6733C41.4492 20.3796 40.9365 19.9463 40.5478 19.4104C40.9134 18.3296 41.4154 17.3 42.0418 16.3468H42.2052C42.3349 16.7426 42.5676 17.0966 42.8796 17.372C43.1914 17.6475 43.5711 17.8345 43.9793 17.9137C44.2949 17.9513 44.6149 17.9167 44.9152 17.8125C45.2155 17.7082 45.4883 17.5371 45.7131 17.312C45.9378 17.0868 46.1086 16.8136 46.2126 16.5127C46.3167 16.2118 46.3512 15.8913 46.3137 15.5751C46.0803 14.3824 45.0298 14.6397 44.6563 13.8913V13.3534C45.297 12.9419 45.852 12.4098 46.2904 11.7865C46.3993 11.4609 46.4241 11.1128 46.3625 10.7749C46.301 10.4371 46.155 10.1203 45.9383 9.85411C45.7216 9.58796 45.4411 9.38111 45.1231 9.25284C44.805 9.12457 44.4597 9.07905 44.1194 9.12053C43.763 9.15029 43.4174 9.25782 43.1069 9.43558C42.7964 9.61334 42.5285 9.85702 42.3219 10.1495C42.2294 10.5179 42.0712 10.8664 41.8551 11.1785C41.0148 10.6143 40.0401 10.2834 39.0305 10.2197C38.6989 10.3215 38.3969 10.5022 38.1503 10.7465C37.9036 10.9907 37.7197 11.2911 37.6142 11.622C37.5086 11.953 37.4847 12.3046 37.5443 12.6468C37.604 12.9891 37.7455 13.3118 37.9567 13.5873C38.4625 13.8653 38.9534 14.1698 39.4273 14.4993L36.8596 16.8379C36.3518 16.8312 35.8601 16.6588 35.4589 16.3468C34.2431 15.6696 32.9389 15.1659 31.5839 14.8501L31.0704 11.3188L31.8874 11.6696C32.1977 11.741 32.5193 11.7479 32.8324 11.6902C33.1455 11.6324 33.4435 11.511 33.708 11.3336C33.9726 11.1562 34.1981 10.9264 34.3708 10.6584C34.5434 10.3905 34.6595 10.0899 34.7119 9.77534C34.7374 9.4662 34.7012 9.15508 34.6055 8.86008C34.5098 8.56509 34.3564 8.29212 34.1544 8.05706C33.9524 7.82201 33.7057 7.62957 33.4287 7.49095C33.1517 7.35233 32.8499 7.27031 32.541 7.24964H32.0041L30.9303 7.78752H30.7902C30.8981 7.49711 31.0562 7.22797 31.2571 6.9924C31.4514 6.55436 31.5774 6.089 31.6306 5.61262C31.6653 4.78349 31.5276 3.95619 31.2263 3.18322C30.9249 2.41024 30.4664 1.70848 29.8798 1.12248C29.6861 0.657869 29.3617 0.259727 28.9461 -0.0234375C28.0124 1.0991 25.5379 2.82967 26.0048 5.09812C26.1224 5.7163 26.3267 6.31469 26.6117 6.87547C26.8373 7.12016 26.9978 7.4177 27.0786 7.74075C26.8033 7.44147 26.4587 7.21469 26.0752 7.08046C25.6917 6.94622 25.281 6.90864 24.8796 6.97105C24.4782 7.03346 24.0982 7.19392 23.7734 7.43829C23.4485 7.68265 23.1887 8.00338 23.0168 8.37218C22.7684 8.82921 22.6938 9.36095 22.8067 9.86889C22.985 10.3646 23.3022 10.7982 23.7205 11.1176C24.1387 11.4371 24.6401 11.6287 25.1644 11.6696C25.7039 11.4459 26.2576 11.2584 26.8218 11.1084C26.8218 11.1084 26.4483 14.8735 26.355 15.0138C25.766 15.2657 25.1268 15.3777 24.4875 15.3412L21.943 16.0662C21.4763 16.3592 20.9497 16.543 20.4024 16.6041C19.6787 15.6686 18.6983 14.8969 17.8112 14.0082V13.8679C18.1774 13.7365 18.5132 13.532 18.7981 13.2666C19.083 13.0013 19.3111 12.6808 19.4686 12.3244C19.612 12.0011 19.6688 11.6459 19.6333 11.2938C19.5978 10.9418 19.4712 10.6051 19.2662 10.3171C19.0611 10.029 18.7846 9.79946 18.464 9.65114C18.1433 9.50283 17.7896 9.44085 17.4377 9.47132C17.0024 9.50105 16.5795 9.62896 16.2005 9.8455L15.6636 10.4068C15.6636 10.4068 15.6636 10.4068 15.4535 10.4068C15.2816 9.882 14.9944 9.40252 14.6132 9.0036C14.3505 8.72832 14.0248 8.52145 13.6642 8.40097C13.3036 8.28049 12.9191 8.25004 12.5441 8.31227C12.1692 8.3745 11.815 8.52752 11.5125 8.75804C11.2099 8.98857 10.9682 9.28961 10.8082 9.63503C10.6875 10.117 10.7352 10.6258 10.9433 11.0768C11.1514 11.5278 11.5074 11.8938 11.952 12.114C12.3186 12.2002 12.6419 12.4161 12.8624 12.722C12.9791 13.5171 10.9249 13.5405 11.2283 15.2009C11.3892 15.8339 11.7864 16.3809 12.338 16.729C12.8897 17.0771 13.5536 17.1999 14.193 17.0718C14.7073 16.6966 15.1984 16.2905 15.6636 15.8557C16.2329 16.5689 16.704 17.3555 17.0642 18.1943C16.9772 18.4625 16.8373 18.7103 16.6529 18.9233C16.4684 19.1362 16.2431 19.3098 15.9904 19.4338L12.6756 22.8014H12.5122C11.5785 21.9361 10.4113 21.3515 9.54761 20.4628C9.54761 19.9951 10.0378 19.8548 10.1545 19.3636C10.2799 18.9842 10.2935 18.5767 10.1938 18.1897C10.0942 17.8027 9.88536 17.4526 9.5924 17.1813C9.29945 16.91 8.93472 16.729 8.5418 16.6598C8.14888 16.5906 7.74439 16.6362 7.37666 16.7912C7.03774 17.0022 6.7437 17.2782 6.51138 17.6032C6.27905 17.9283 6.113 18.296 6.02273 18.6855H5.85932C5.10397 17.9424 4.16965 17.4076 3.14709 17.133C2.12453 16.8585 1.04849 16.8535 0.0234375 17.1186C0.365428 17.6606 0.850086 18.0976 1.42405 18.3814L5.55586 21.8192C7.0265 22.9183 8.19368 24.2513 9.57095 25.3505ZM33.288 28.6947C33.1747 28.6888 33.064 28.6586 32.9633 28.6061C32.8626 28.5537 32.7743 28.4802 32.7044 28.3907C32.6982 28.3207 32.6982 28.2502 32.7044 28.1802L32.9378 28.0165H33.2413C33.322 28.0604 33.3902 28.1243 33.4392 28.2021C33.4883 28.2799 33.5166 28.369 33.5214 28.4608L33.288 28.6947ZM33.5448 26.5432C33.4738 26.5842 33.3933 26.6058 33.3113 26.6058C33.2294 26.6058 33.1489 26.5842 33.0779 26.5432V26.3327L33.3113 26.1222H33.5915C33.5915 26.1222 33.5915 26.2859 33.5915 26.3561L33.5448 26.5432ZM40.5478 13.6341C40.7324 13.1294 41.0988 12.7123 41.575 12.4647C41.9836 12.4027 42.4 12.5059 42.7327 12.7515C43.0655 12.9971 43.2872 13.365 43.3491 13.7744C43.411 14.1837 43.308 14.601 43.0629 14.9343C42.8177 15.2676 42.4504 15.4897 42.0418 15.5517C41.8083 15.5689 41.5743 15.5261 41.3619 15.4275C41.1494 15.3289 40.9656 15.1776 40.8278 14.988C40.6899 14.7984 40.6026 14.5767 40.574 14.3439C40.5455 14.1111 40.5766 13.8748 40.6646 13.6574L40.5478 13.6341ZM35.8791 28.7649C35.6268 28.8821 35.3519 28.9429 35.0738 28.9429C34.7956 28.9429 34.5208 28.8821 34.2684 28.7649C34.2408 28.7023 34.2265 28.6346 34.2265 28.5661C34.2265 28.4976 34.2408 28.4299 34.2684 28.3673L34.6419 28.1568C35.1788 28.1568 35.8091 28.1568 35.8324 28.7181L35.8791 28.7649ZM38.4936 29.7003C38.3769 29.7003 36.3927 28.9286 36.3927 28.9286C36.389 28.8293 36.4058 28.7303 36.442 28.6378C36.4781 28.5452 36.5328 28.4611 36.6028 28.3907C37.3776 28.458 38.1159 28.7506 38.727 29.2326C38.71 29.4122 38.6268 29.5789 38.4936 29.7003ZM36.2993 27.3617C36.2993 27.198 36.2993 27.0577 36.2993 26.894H36.4627H36.9996C37.0906 26.9806 37.1484 27.0965 37.163 27.2214C37.1093 27.3202 37.0282 27.4014 36.9296 27.4552L36.2993 27.3617ZM39.0772 28.0399C38.6107 28.0085 38.1713 27.8091 37.84 27.4786V27.3149L38.0501 27.1045C38.5341 27.0762 39.0104 27.2353 39.3807 27.5488C39.3332 27.7281 39.2361 27.8902 39.1005 28.0165L39.0772 28.0399ZM38.3535 25.8884L38.5169 25.4207C38.9323 25.4186 39.3359 25.5589 39.6608 25.8182C39.6619 25.8968 39.6433 25.9745 39.6066 26.044C39.5699 26.1135 39.5162 26.1725 39.4507 26.2158C39.2517 26.2645 39.0433 26.2599 38.8467 26.2025C38.65 26.145 38.4719 26.0367 38.3302 25.8884H38.3535ZM41.0614 31.1269C40.4778 30.7059 39.7308 30.3785 39.1706 29.9576L39.404 29.4898C39.797 29.5212 40.1789 29.6353 40.5249 29.8247C40.8708 30.0141 41.173 30.2746 41.4115 30.589C41.4113 30.7 41.3807 30.8088 41.3231 30.9036C41.2654 30.9984 41.183 31.0756 41.0847 31.1269H41.0614ZM42.3686 29.9342C41.4433 29.4361 40.554 28.8734 39.7075 28.2504C39.6777 28.1573 39.6855 28.0563 39.7291 27.9689C39.7727 27.8815 39.8487 27.8146 39.9409 27.7826C40.9501 28.1278 41.8736 28.6861 42.6488 29.4197C42.6426 29.5234 42.6118 29.6242 42.559 29.7136C42.5063 29.8031 42.433 29.8787 42.3453 29.9342H42.3686ZM43.5358 28.2971L43.3024 28.4375C42.1998 27.9959 41.1505 27.431 40.1743 26.7537C40.1447 26.6687 40.1447 26.5761 40.1744 26.4912C40.2041 26.4062 40.2617 26.3339 40.3377 26.2859C41.5422 26.6357 42.6569 27.242 43.6058 28.0633V28.2971H43.5358ZM44.5396 27.2915C43.4303 26.8451 42.3922 26.2384 41.4582 25.4908L40.1977 24.8594L40.3377 24.4618L40.5478 24.3215C42.2342 24.7412 43.7702 25.624 44.9831 26.8706L44.5396 27.2915ZM51.1458 20.5797C51.3559 20.416 51.6594 20.3459 51.8695 20.1822H52.0329L52.1963 20.3459C51.9862 20.72 51.3792 21.0241 51.0991 20.72V20.5797H51.1458ZM49.5118 21.1878C49.7549 21.1271 50.0105 21.1391 50.2469 21.2222C50.4833 21.3054 50.6903 21.456 50.8423 21.6555C50.8289 21.8176 50.7688 21.9724 50.6694 22.1011C50.5699 22.2297 50.4354 22.3268 50.2821 22.3805C49.8356 22.2234 49.4176 21.9944 49.0449 21.7023V21.5853C49.1457 21.4246 49.2813 21.2887 49.4417 21.1878H49.5118ZM47.5042 22.6143L47.8077 22.3805C48.0752 22.3256 48.3531 22.3545 48.6037 22.4633C48.8542 22.572 49.0653 22.7554 49.2083 22.9885C49.2028 23.0862 49.1719 23.1808 49.1187 23.2628C49.0654 23.3448 48.9917 23.4115 48.9048 23.4562H48.438L47.4809 22.7312V22.6143H47.5042ZM46.5705 23.6901C46.758 23.6871 46.9433 23.7303 47.1102 23.8159C47.2771 23.9016 47.4204 24.027 47.5276 24.1812C47.5223 24.2669 47.5223 24.3528 47.5276 24.4384C47.4109 24.611 47.2495 24.7485 47.0607 24.836C46.628 24.6799 46.2253 24.4505 45.8702 24.1578C45.8753 24.1034 45.8753 24.0485 45.8702 23.9941C46.0901 23.8734 46.316 23.7641 46.5471 23.6667L46.5705 23.6901ZM43.6292 24.5554L43.956 24.3215C44.8303 24.4694 45.6152 24.9462 46.1503 25.6545L45.9402 25.9118L45.6367 26.169C44.8768 25.8043 44.1888 25.3052 43.6058 24.6957V24.5554H43.6292ZM41.8317 23.1522C42.5554 23.1522 43.5358 23.7135 42.9055 24.228C42.4925 24.1287 42.0983 23.9628 41.7384 23.7369V23.3393L41.8317 23.1522ZM39.4974 22.3805L39.8008 22.1466C40.0269 22.1219 40.2549 22.1697 40.4521 22.2832C40.6493 22.3967 40.8054 22.57 40.898 22.778C40.8602 22.8638 40.8056 22.9411 40.7374 23.0054C40.6692 23.0696 40.5889 23.1196 40.5012 23.1522C40.3031 23.1496 40.1085 23.0994 39.9338 23.0058C39.7592 22.9122 39.6095 22.7779 39.4974 22.6143V22.3805ZM38.2602 21.9361L38.4236 21.7256C38.6782 21.7117 38.9286 21.7953 39.1239 21.9595L38.9138 22.1934C38.7779 22.2136 38.639 22.1934 38.5145 22.1352C38.39 22.077 38.2853 21.9833 38.2135 21.866L38.2602 21.9361ZM38.2602 23.5498C38.5566 23.5284 38.8541 23.5716 39.1322 23.6766C39.4102 23.7816 39.6623 23.9458 39.8709 24.1578V24.3215L39.7075 24.4852C39.4212 24.5189 39.1311 24.4858 38.8597 24.3884C38.5884 24.291 38.3432 24.1321 38.1435 23.9239L38.2602 23.5498ZM37.5599 21.3749H37.8633V21.6321C37.7842 21.6967 37.6853 21.7319 37.5832 21.7319C37.4811 21.7319 37.3822 21.6967 37.3031 21.6321L37.1397 21.5619C37.2465 21.4557 37.3867 21.3896 37.5365 21.3749H37.5599ZM36.8829 23.1054C37.1331 23.0609 37.391 23.1109 37.6066 23.2457C37.6397 23.3151 37.6569 23.391 37.6569 23.4679C37.6569 23.5448 37.6397 23.6207 37.6066 23.6901C37.4848 23.7422 37.3538 23.769 37.2214 23.769C37.089 23.769 36.958 23.7422 36.8362 23.6901C36.7934 23.5371 36.7934 23.3753 36.8362 23.2224L36.8829 23.1054ZM36.4861 25.2803L36.7895 25.0465C37.0159 25.0211 37.2451 25.048 37.4595 25.125C37.674 25.202 37.868 25.3272 38.0267 25.4908L37.8867 25.865C37.635 25.897 37.3794 25.8738 37.1376 25.7971C36.8958 25.7204 36.6735 25.5919 36.4861 25.4207V25.2803ZM36.0892 22.9417H36.3927C36.395 23.0202 36.3741 23.0976 36.3325 23.1642C36.291 23.2308 36.2307 23.2836 36.1592 23.3159H36.0659L35.9025 23.3627L36.0892 22.9417ZM35.7858 26.6601H35.9492V26.894H35.8091C35.7788 26.8109 35.7788 26.7198 35.8091 26.6367L35.7858 26.6601ZM35.0388 24.6723C35.1593 24.6518 35.2831 24.6795 35.3835 24.7495C35.4839 24.8194 35.5529 24.9261 35.5757 25.0465L35.4123 25.2102C35.2357 25.252 35.0519 25.252 34.8754 25.2102V25.0699V24.9295L35.0388 24.6723ZM35.0388 26.6133V26.777C34.7864 26.8445 34.5208 26.8445 34.2684 26.777C34.0817 26.59 34.1284 26.5432 34.2684 26.2859H34.8987L35.0388 26.6133ZM34.1984 24.6723H34.4318C34.4729 24.6902 34.5079 24.7196 34.5327 24.7569C34.5575 24.7942 34.5711 24.8379 34.5719 24.8828C34.4903 24.93 34.3977 24.9548 34.3034 24.9548C34.2092 24.9548 34.1166 24.93 34.035 24.8828C33.9834 24.8715 33.9379 24.8412 33.9077 24.7978C33.8774 24.7545 33.8645 24.7013 33.8716 24.6489L34.1984 24.6723ZM28.0357 8.30202C28.3421 8.05112 28.7157 7.89653 29.1095 7.85768C30.8136 7.85768 30.5801 11.1317 28.736 10.7108C28.5051 10.6293 28.2969 10.4939 28.1287 10.3158C27.9604 10.1377 27.8369 9.92199 27.7685 9.68654C27.7 9.45109 27.6886 9.2027 27.735 8.96192C27.7815 8.72115 27.8846 8.49494 28.0357 8.30202ZM15.5002 14.2187C15.2662 14.2087 15.0385 14.1401 14.8378 14.0192C14.6372 13.8982 14.47 13.7288 14.3515 13.5264C14.2331 13.324 14.1672 13.0951 14.1599 12.8606C14.1526 12.6261 14.2041 12.3935 14.3097 12.1841C14.4115 11.9996 14.5556 11.8419 14.7301 11.724C14.9046 11.6061 15.1045 11.5314 15.3135 11.5059C15.6725 11.478 16.028 11.5941 16.3016 11.8288C16.5752 12.0634 16.7446 12.3973 16.7724 12.7571C16.8003 13.1168 16.6844 13.4729 16.4502 13.747C16.2159 14.0211 15.8826 14.1908 15.5236 14.2187H15.5002ZM13.0025 26.777C12.8964 26.7582 12.7973 26.7115 12.7153 26.6416C12.6332 26.5718 12.5712 26.4813 12.5356 26.3795C12.6965 26.1038 12.9121 25.864 13.169 25.675C13.426 25.4859 13.7188 25.3516 14.0296 25.2803H14.4731C14.5115 25.3431 14.5337 25.4144 14.5378 25.4879C14.5418 25.5613 14.5276 25.6347 14.4964 25.7013C14.0665 26.1463 13.5605 26.5106 13.0025 26.777ZM14.9166 28.4141V28.2504C15.5855 27.7662 16.3155 27.373 17.0876 27.0811C17.3094 27.1103 17.5191 27.1992 17.6945 27.3383C16.9818 27.8827 16.1959 28.3236 15.3601 28.6479C15.2735 28.6444 15.1888 28.6216 15.112 28.5811C15.0353 28.5407 14.9686 28.4836 14.9166 28.4141ZM16.1071 29.8406C16.0494 29.8171 15.9969 29.7822 15.9528 29.738C15.9087 29.6939 15.8738 29.6413 15.8504 29.5834V29.4664C16.6236 28.7464 17.5493 28.2107 18.5582 27.8996C18.7287 27.8551 18.9086 27.8625 19.0749 27.9208C19.2412 27.9791 19.3864 28.0857 19.492 28.227C18.4764 28.9524 17.3486 29.5055 16.1538 29.864L16.1071 29.8406ZM17.2977 31.1502C17.2144 31.0985 17.1425 31.0304 17.0864 30.95C17.0302 30.8696 16.9909 30.7786 16.9709 30.6825C17.862 30.0159 18.8665 29.5167 19.9355 29.2092H20.2156L20.449 29.4197C19.5402 30.2116 18.4741 30.8014 17.321 31.1502H17.2977ZM19.632 27.5488C19.9772 27.2132 20.4175 26.9927 20.8926 26.9174H21.3361V27.1746C21.1325 27.3912 20.8798 27.5553 20.5994 27.653C20.319 27.7507 20.0191 27.7791 19.7254 27.7359C19.6863 27.7251 19.6507 27.7044 19.6221 27.6757C19.5934 27.647 19.5727 27.6113 19.562 27.5722L19.632 27.5488ZM22.4332 28.9286L21.3594 29.3729C21.2475 29.3791 21.1356 29.3614 21.031 29.3211C20.9264 29.2808 20.8315 29.2187 20.7525 29.139C20.7469 29.0612 20.7469 28.983 20.7525 28.9052C21.056 28.7181 21.6162 28.6947 21.943 28.5076L22.4332 28.8116V28.9286ZM23.7405 26.4263C23.9973 26.4263 24.0906 26.4263 24.1607 26.59V26.7537H23.9973C23.9156 26.7902 23.8235 26.7961 23.7378 26.7703C23.6522 26.7446 23.5785 26.6889 23.5304 26.6133C23.5547 26.5052 23.6118 26.4071 23.6938 26.3327L23.7405 26.4263ZM23.5771 28.0399H24.0439L24.184 28.2504L23.1802 28.6245L22.7134 28.3907C23.0152 28.2562 23.3275 28.1467 23.6471 28.0633L23.5771 28.0399ZM22.8067 25.2102L23.0168 25.0699C23.2503 25.0699 23.4137 25.0699 23.3436 25.3739C23.2923 25.4199 23.2258 25.4453 23.1569 25.4453C23.088 25.4453 23.0215 25.4199 22.9701 25.3739L22.8067 25.2336V25.2102ZM22.3165 23.8304C22.3165 23.8304 22.3165 23.8304 22.3165 24.0643H22.2465V23.9473L22.3165 23.8304ZM22.1765 26.59H22.6433C22.6824 26.6007 22.718 26.6214 22.7467 26.6501C22.7753 26.6788 22.796 26.7145 22.8067 26.7537C22.7047 26.8912 22.5586 26.9894 22.3929 27.032C22.2271 27.0746 22.0519 27.0589 21.8963 26.9875V26.8472C21.8963 26.6133 22.0364 26.5198 22.1998 26.4263L22.1765 26.59ZM21.873 25.7013C21.7814 25.8616 21.6304 25.9792 21.4528 26.0287L21.0326 25.9118V25.7714C21.0264 25.7014 21.0264 25.631 21.0326 25.561L21.4061 25.3505H21.8497L21.873 25.7013ZM20.379 24.2981C20.5646 24.1288 20.7892 24.0083 21.0326 23.9473H21.4762V24.0876V24.2981C21.1502 24.5052 20.7609 24.5882 20.379 24.532V24.3215V24.2981ZM20.379 26.1924C19.804 26.6392 19.0991 26.8856 18.3715 26.894L18.1614 26.7537C18.6754 26.4005 19.2548 26.154 19.8655 26.0287H20.2156C20.2585 26.0671 20.293 26.1139 20.3171 26.1661C20.3412 26.2184 20.3543 26.2751 20.3557 26.3327L20.379 26.1924ZM19.8421 24.415L20.0522 24.6489L19.9121 24.8594C19.752 24.9055 19.5821 24.9055 19.4219 24.8594C19.4014 24.8238 19.3907 24.7835 19.3907 24.7425C19.3907 24.7014 19.4014 24.6611 19.4219 24.6255C19.5047 24.5162 19.6187 24.4347 19.7487 24.3917H19.9822L19.8421 24.415ZM18.5115 23.0587C18.6124 22.9427 18.7409 22.8542 18.885 22.8014H19.2118C19.2547 22.8398 19.2892 22.8866 19.3133 22.9389C19.3374 22.9912 19.3506 23.0478 19.3519 23.1054C19.1885 23.2691 18.3014 23.5965 18.5115 23.1054V23.0587ZM18.5115 24.9295L18.6983 25.0932C18.6983 25.0932 18.6983 25.0932 18.6983 25.257C18.4848 25.4993 18.2168 25.6873 17.9164 25.8052C17.616 25.9232 17.2919 25.9677 16.9709 25.9351C16.8822 25.8762 16.81 25.7957 16.7608 25.7013C17.167 25.3617 17.6465 25.1215 18.1614 24.9997H18.4648L18.5115 24.9295ZM17.4611 21.2345L17.6712 21.0241H17.9046L18.138 21.1878V21.4216C18.0829 21.5135 18.0016 21.5868 17.9046 21.6321C17.7463 21.6294 17.5922 21.5806 17.4611 21.4918V21.2345ZM17.0876 23.5731H17.3677C17.4305 23.6192 17.482 23.6788 17.5184 23.7477C17.5548 23.8166 17.5751 23.8928 17.5778 23.9707C17.4666 24.0961 17.3205 24.1854 17.1583 24.2271C16.9961 24.2687 16.8251 24.2609 16.6674 24.2046V23.9473C16.8222 23.797 17.0045 23.6779 17.2043 23.5965L17.0876 23.5731ZM16.574 21.6555H16.7374L16.8775 21.7958L16.644 21.9361L16.3639 21.7958L16.574 21.6555ZM16.3639 26.5666C15.7257 27.1773 14.9062 27.5632 14.0296 27.6657L13.7961 27.502C13.8013 27.4476 13.8013 27.3928 13.7961 27.3383C14.4023 26.8777 15.0422 26.4634 15.7103 26.0988C15.7848 26.0814 15.8623 26.0809 15.9371 26.0973C16.0118 26.1137 16.082 26.1467 16.1424 26.1937C16.2028 26.2408 16.252 26.3008 16.2863 26.3694C16.3205 26.4379 16.3391 26.5133 16.3406 26.59H16.3639V26.5666ZM15.2668 22.4038C15.5236 22.4038 15.6169 22.4038 15.7103 22.5675C15.7051 22.622 15.7051 22.6768 15.7103 22.7312L15.3368 22.9885H15.1034C15.0415 22.9625 14.991 22.9152 14.961 22.8552C14.9311 22.7951 14.9236 22.7262 14.94 22.6611L15.2668 22.4038ZM15.5702 24.2981H15.9671C16.0062 24.3088 16.0418 24.3296 16.0704 24.3583C16.0991 24.387 16.1198 24.4227 16.1305 24.4618V24.6255C15.9874 24.7803 15.8072 24.8958 15.607 24.9613C15.4069 25.0268 15.1933 25.04 14.9867 24.9997C14.9042 24.9097 14.8548 24.7942 14.8466 24.6723C15.0359 24.4804 15.2679 24.3361 15.5236 24.2513L15.5702 24.2981ZM13.8662 23.2457C13.9991 23.2202 14.1368 23.2383 14.2587 23.2973C14.3806 23.3562 14.4804 23.453 14.5431 23.5731C14.4719 23.7277 14.3487 23.8523 14.1951 23.9249C14.0414 23.9976 13.8671 24.0138 13.7028 23.9707C13.5913 23.8705 13.5103 23.7408 13.4693 23.5965C13.587 23.4961 13.7213 23.4169 13.8662 23.3627V23.2457ZM12.699 23.9707H13.0025C13.087 23.9988 13.1612 24.0517 13.2154 24.1226C13.2695 24.1935 13.3011 24.2791 13.3059 24.3683C12.9037 24.8067 12.4094 25.1501 11.8586 25.3739C11.6798 25.3147 11.5245 25.2 11.4151 25.0465C11.5387 24.7838 11.7141 24.549 11.9308 24.3561C12.1474 24.1631 12.4008 24.0161 12.6756 23.9239L12.699 23.9707ZM10.528 22.9651H10.8315C11.0193 23.0635 11.1616 23.2313 11.2283 23.4328C11.0249 23.7385 10.7631 24.0008 10.458 24.2046C10.3238 24.173 10.1981 24.1128 10.0893 24.028C9.98052 23.9433 9.8913 23.836 9.82773 23.7135C9.86596 23.5316 9.95057 23.3628 10.0733 23.2235C10.196 23.0841 10.3527 22.979 10.528 22.9183V22.9651ZM8.66055 21.7256H9.19745C9.32561 21.8412 9.40839 21.9987 9.43089 22.17C9.3612 22.3387 9.25646 22.4906 9.12364 22.6156C8.99082 22.7406 8.83296 22.8358 8.66055 22.895C8.50975 22.9 8.36078 22.8606 8.23213 22.7816C8.10349 22.7026 8.00083 22.5875 7.9369 22.4506C7.98053 22.2779 8.07135 22.1207 8.19917 21.9968C8.327 21.8728 8.48677 21.7871 8.66055 21.749V21.7256ZM7.23659 20.6499C7.3698 20.6434 7.50207 20.6752 7.61786 20.7415C7.73365 20.8078 7.82813 20.9058 7.89021 21.0241C7.8825 21.1753 7.83533 21.3218 7.7534 21.449C7.67148 21.5762 7.55767 21.6797 7.42334 21.749C7.29099 21.7518 7.16075 21.7156 7.04872 21.6449C6.9367 21.5742 6.84782 21.4722 6.79307 21.3515C6.81118 21.2066 6.87549 21.0714 6.97643 20.9661C7.07737 20.8607 7.20955 20.7909 7.35331 20.7668L7.23659 20.6499ZM5.01896 19.9249C5.11345 19.7567 5.26135 19.625 5.43914 19.5507C5.61244 19.5082 5.7955 19.5359 5.9485 19.6279C6.1015 19.7199 6.21207 19.8686 6.25617 20.0418C6.15556 20.2193 5.99981 20.3589 5.81264 20.4394C5.6218 20.4455 5.43459 20.3862 5.28184 20.2715C5.12909 20.1567 5.01991 19.9932 4.97227 19.808L5.01896 19.9249ZM29.2029 49.0874C29.9781 48.6229 30.7053 48.0824 31.3738 47.4738L31.5372 33.6993C32.2323 33.5775 32.9431 33.5775 33.6381 33.6993C35.3189 33.6993 37.1163 34.0267 38.8438 34.0267C39.0705 33.655 39.1766 33.2219 39.1472 32.7873C38.5322 32.4756 37.8816 32.24 37.2097 32.0857L36.276 31.6881C34.3341 31.2785 32.3545 31.0747 30.3701 31.0801C30.0013 29.3116 29.8291 27.5077 29.8565 25.7013V24.1812C30.0928 23.9171 30.3591 23.6816 30.6502 23.4796C30.9453 23.0791 31.1812 22.638 31.3505 22.17C31.5287 21.7229 31.5911 21.238 31.5318 20.7603C31.4726 20.2826 31.2937 19.8277 31.0118 19.4379C30.7299 19.0481 30.3541 18.7361 29.9195 18.531C29.4848 18.3258 29.0054 18.2341 28.5259 18.2645C27.4502 18.4768 26.4695 19.0254 25.7247 19.8314C25.3986 20.6139 25.3706 21.4891 25.646 22.2909C25.9214 23.0927 26.481 23.7654 27.2187 24.1812C27.4339 24.8102 27.4339 25.4932 27.2187 26.1222L27.0553 28.9753L26.7518 30.8228C25.8933 31.0187 25.0175 31.1283 24.1373 31.1502C22.2377 31.4595 20.4009 32.0756 18.6983 32.9744C18.8014 33.4293 19.0093 33.8537 19.3052 34.2138L21.0326 33.9332C22.0364 33.7461 23.1336 33.9332 24.2774 33.7695C24.7716 33.6825 25.2772 33.6825 25.7714 33.7695C26.2849 34.6816 25.6313 37.371 25.7714 38.8209V42.4224C25.7714 45.3222 25.7714 48.5027 25.7714 51.3792L27.6155 50.0462C27.805 49.7507 27.9468 49.4271 28.0357 49.0874V44.9013C28.0357 41.1283 28.0357 37.3632 28.0357 33.6058H29.2729C29.4868 35.1575 29.4868 36.7313 29.2729 38.283V41.4168C29.1562 42.1885 29.2729 43.311 29.2729 44.0594C29.1095 45.7432 29.2729 47.6608 29.2729 49.1342L29.2029 49.0874ZM28.8527 19.9249L28.0357 20.0652C26.9152 20.6265 27.5922 21.9361 28.0357 22.4038V23.1756C27.5155 23.0274 27.0713 22.686 26.7937 22.221C26.5161 21.7561 26.426 21.2025 26.5417 20.6733C26.6576 20.3193 26.8523 19.9964 27.1111 19.729C27.37 19.4616 27.6861 19.2567 28.0357 19.1298H28.8994C28.9413 19.3696 28.9413 19.6149 28.8994 19.8548L28.8527 19.9249ZM54.5306 23.9473L53.3634 23.4796C52.5464 24.0876 52.0329 24.9763 51.2625 25.6311C50.4922 26.2859 49.2316 27.3851 48.1345 28.2036C47.7486 28.619 47.3089 28.9808 46.8273 29.2794C46.7577 29.666 46.7577 30.062 46.8273 30.4487C46.8273 31.6803 46.8273 32.9042 46.8273 34.1203C46.6405 35.313 46.8273 36.6694 46.6638 37.9556C46.5708 38.7871 46.5708 39.6264 46.6638 40.4579V44.6674C46.8392 45.9163 46.8392 47.1837 46.6638 48.4326C46.6638 49.6331 46.6638 50.8336 46.6638 52.034C46.0758 52.9297 45.342 53.7202 44.4929 54.3727L42.6954 56.0798C40.828 57.3661 38.9838 58.5822 37.2331 59.9619C36.7907 60.2408 36.3764 60.5619 35.9958 60.9208C36.133 61.2502 36.3697 61.5283 36.6728 61.7159C37.0289 62.174 37.2692 62.7116 37.3731 63.2828C37.3731 67.0557 37.2953 70.8365 37.1397 74.625C37.2752 76.2729 37.0604 77.9308 36.5094 79.4893C35.6654 80.1147 34.6617 80.4877 33.6148 80.5651C33.0895 80.2642 32.6503 79.8329 32.3396 79.3128C32.0289 78.7926 31.8571 78.201 31.8407 77.5951V76.2621C31.6487 74.7108 31.6018 73.1449 31.7006 71.5848V69.901C31.4905 68.5446 31.864 67.2116 31.7006 65.7149C31.5944 64.3216 31.5944 62.9221 31.7006 61.5288V57.4128C31.9107 56.1032 31.864 54.513 32.0975 53.2267C32.2142 52.5252 32.0975 51.7768 32.8678 51.6833C34.2889 53.185 35.3926 54.9588 36.1126 56.8984L36.4394 57.9975C36.4619 58.0418 36.495 58.08 36.5357 58.1085C36.5764 58.1371 36.6235 58.1551 36.6728 58.1612C37.8633 57.2959 38.7504 56.0097 39.9176 55.121C40.4045 54.8318 40.8723 54.5116 41.3182 54.1622C41.0251 52.8496 40.3886 51.6389 39.474 50.6543C38.9012 49.4589 38.0531 48.4169 36.9996 47.6141C36.5753 47.5461 36.1408 47.583 35.734 47.7216C35.3272 47.8602 34.9603 48.0962 34.6653 48.4092C32.6577 49.6253 30.6268 50.7478 28.7593 52.0574C28.0124 52.5953 25.5613 54.6533 24.0906 53.8582C23.5423 53.1261 23.0655 52.343 22.6667 51.5196C21.7745 50.2919 20.8078 49.1204 19.7721 48.0116C19.345 47.4471 18.7718 47.0104 18.1147 46.7488C17.7722 46.7477 17.4353 46.8354 17.1366 47.0034C16.838 47.1714 16.5879 47.414 16.4106 47.7076C15.1407 48.9934 13.9554 50.3605 12.8624 51.8002C12.5802 52.0391 12.3528 52.3361 12.1957 52.6711C12.0385 53.0061 11.9554 53.3711 11.952 53.7412C12.769 53.7412 13.2125 52.8058 14.0763 52.6421C14.9614 52.6756 15.8226 52.939 16.5756 53.4063C17.3286 53.8737 17.9474 54.529 18.3715 55.3081L19.2819 57.4128C18.7094 58.291 17.8999 58.9884 16.9475 59.4241C15.5002 60.4764 14.1229 61.7627 12.699 62.8618C12.221 63.3246 11.7057 63.7469 11.1583 64.1247C10.7964 63.3021 10.6906 62.3892 10.8548 61.5054C11.135 58.5588 10.6681 54.6299 11.135 51.6131L11.275 48.4326C11.275 47.8012 11.275 47.1931 11.275 46.5617V37.675C11.4001 35.5955 11.4001 33.5104 11.275 31.4309V29.6068C10.8236 28.774 10.164 28.0729 9.36086 27.5722L7.49337 25.9351C6.69969 25.3505 5.85932 24.8828 5.15902 24.2981C4.46562 23.7075 3.67599 23.2408 2.82466 22.9183L3.57166 23.9239C4.38645 25.188 4.98597 26.579 5.34577 28.0399C5.75343 30.0316 5.86357 32.0728 5.67258 34.0969V35.4299C5.58487 36.207 5.58487 36.9915 5.67258 37.7685L5.88267 47.9181C6.03267 49.1921 6.03267 50.4794 5.88267 51.7534V55.121C5.76595 55.8928 5.88267 56.6411 5.74261 57.4596C5.40448 59.7389 5.40448 62.0558 5.74261 64.3351L5.5792 69.1293C5.69828 71.1855 5.69828 73.247 5.5792 75.3032V76.4024C5.40379 77.9565 5.40379 79.5255 5.5792 81.0796C6.0756 81.925 6.72471 82.6704 7.49337 83.2779C8.60247 84.4843 9.83916 85.5664 11.1817 86.5052L12.629 87.4172C13.5954 85.362 15.2462 83.7082 17.2977 82.74C17.9368 82.9478 18.5198 83.2998 19.0017 83.769C20.449 84.7746 21.7329 85.9205 23.1802 86.8793C24.7729 85.8303 26.2041 84.554 27.4288 83.0908C27.9935 83.3247 28.5026 83.6753 28.9228 84.1198C29.9499 84.9149 30.907 85.7334 31.9574 86.4584C32.1777 86.6912 32.4388 86.8814 32.7277 87.0197L34.2918 85.6867L36.7895 83.8859C37.364 83.2713 38.0245 82.7435 38.7504 82.3191L45.3566 88.4462C45.9152 88.1706 46.4209 87.7985 46.8506 87.3471C48.2666 86.3751 49.5261 85.1922 50.5856 83.8392C51.1097 83.3332 51.53 82.7294 51.8228 82.0618C51.8228 79.5829 51.8228 77.2677 51.8228 74.5783C51.8228 73.4869 51.8228 72.3956 51.8228 71.3042V69.1059C52.0111 67.8423 52.0111 66.5576 51.8228 65.294C51.8228 63.9999 51.8228 62.7059 51.8228 61.4119C51.8228 60.1178 51.8228 58.7459 51.8228 57.2959L52.243 53.7646V49.2511C52.243 48.8535 52.243 48.456 52.243 48.0584C52.243 46.8735 52.243 45.6808 52.243 44.4803C52.1504 43.8366 52.1504 43.183 52.243 42.5393C52.243 40.9802 52.243 39.4211 52.243 37.8621L52.453 34.1904V32.5768C52.7095 30.1731 53.2825 27.814 54.1571 25.561C56.1534 25.6857 58.1497 25.3163 59.9697 24.4852C58.1948 24.8022 56.3701 24.6899 54.6473 24.1578L54.5306 23.9473ZM16.3639 79.4893C16.5532 80.2571 16.6782 81.0394 16.7374 81.8279C15.687 82.9739 13.0491 80.1909 12.6056 79.349C12.0488 77.6165 11.7422 75.8131 11.6952 73.9936C11.4551 72.7208 11.3223 71.43 11.2984 70.1349V66.627C12.0332 65.882 12.8751 65.2514 13.7961 64.7561C14.5504 65.3497 15.1775 66.0893 15.6403 66.931C16.1266 67.462 16.5211 68.0706 16.8074 68.7317L16.3639 75.2798C16.2273 76.6797 16.2273 78.0895 16.3639 79.4893ZM26.3316 62.4409V65.7149C26.0515 67.2116 26.4483 68.872 26.1916 70.3921V77.1507L26.4016 81.8279H26.2382C24.8981 81.1606 23.7493 80.1627 22.9001 78.9281C22.9001 78.6474 22.9001 78.3434 22.9001 78.0628C22.7134 76.7999 22.9001 75.2565 22.7367 73.8767C22.5679 72.4317 22.5679 70.9719 22.7367 69.5269C23.0138 68.4034 23.1161 67.2438 23.0402 66.0891C22.448 64.5278 21.4581 63.1491 20.1689 62.0901L19.2352 61.0611V60.7805C19.8868 60.2025 20.59 59.6858 21.3361 59.237L25.2111 56.5943H25.2345C26.0062 58.0328 26.415 59.6385 26.425 61.2716C26.425 61.7393 26.425 62.0901 26.4016 62.4642L26.3316 62.4409ZM46.4538 73.3154L46.2904 76.3556C46.2904 78.2966 46.4771 80.2377 46.5004 82.0618H46.3604C44.939 81.1122 43.698 79.9164 42.6954 78.5305C42.6268 78.0739 42.5956 77.6124 42.6021 77.1507L42.4387 72.4735V71.1405V66.627C42.4387 65.8163 42.4387 65.0367 42.4387 64.2884C42.0334 61.9406 42.4108 59.5244 43.5125 57.4128C44.1437 56.6988 44.9475 56.1593 45.8468 55.846H46.4538L46.6172 55.9863V57.1322C46.7804 58.2096 46.7804 59.3055 46.6172 60.3829L46.2437 65.1303C46.337 67.8587 46.4304 70.587 46.5238 73.3154H46.4538ZM41.2248 46.7488C41.1958 46.9431 41.2078 47.1413 41.26 47.3306C41.3123 47.52 41.4037 47.6962 41.5283 47.8479C41.7395 47.863 41.9515 47.8356 42.152 47.7673C42.3524 47.699 42.5372 47.5913 42.6954 47.4504C43.1224 47.2498 43.4978 46.9538 43.7926 46.5851C44.0658 45.4598 43.9591 44.2756 43.4891 43.2175L43.0923 42.4457C43.0923 42.1651 43.3257 41.8845 43.4191 41.6038C43.8146 41.1058 44.0058 40.4754 43.9537 39.8411C43.9017 39.2068 43.6103 38.6162 43.139 38.1895C42.7226 37.9894 42.2837 37.8403 41.8317 37.7451C41.5327 37.984 41.333 38.3258 41.2715 38.704C41.4816 39.1015 42.2052 39.2886 42.5787 39.8031C42.2436 40.6734 41.8295 41.511 41.3415 42.3054C41.3415 42.8901 43.1156 44.644 42.8355 45.6263C42.3988 46.1218 41.845 46.4997 41.2248 46.7254V46.7488ZM14.1696 43.3812C14.2824 43.9869 14.6048 44.5335 15.08 44.9247H15.3135L16.2239 43.9658C16.0671 43.6147 15.8796 43.2782 15.6636 42.9602V41.9546C15.6054 40.9301 15.7158 39.903 15.9904 38.9144C15.9156 38.6365 15.7679 38.3837 15.5627 38.1822C15.3574 37.9807 15.1021 37.8379 14.8232 37.7685C14.3246 38.1446 13.9439 38.6559 13.7261 39.2418C14.0355 39.5174 14.317 39.8229 14.5665 40.1539C14.7243 40.9254 14.7243 41.721 14.5665 42.4925C14.4403 42.8024 14.2493 43.0815 14.0062 43.311L14.1696 43.3812ZM37.0463 44.644L37.8867 44.9481C38.5022 44.5508 39.0466 44.0527 39.4974 43.4747C39.0904 42.7084 38.8641 41.8589 38.8358 40.9914C38.8075 40.1239 38.9779 39.2614 39.334 38.4701C39.3537 38.4173 39.3537 38.3592 39.334 38.3064C39.2882 38.2263 39.2127 38.1674 39.1239 38.1427C38.7563 38.277 38.3708 38.3559 37.98 38.3766C37.3772 38.1178 36.7521 37.9143 36.1126 37.7685C35.5817 38.0346 35.1063 38.3997 34.7119 38.8443C34.7795 39.092 34.8654 39.3343 34.9687 39.5692C34.9687 40.3332 34.9687 41.1127 34.9687 41.9079C34.7816 42.5232 34.6258 43.1476 34.5019 43.7787C35.2644 44.3211 36.1604 44.6446 37.093 44.7142L37.0463 44.644ZM35.8791 40.7386V39.5692C36.0323 39.289 36.2808 39.0733 36.5794 38.9612C37.0169 39 37.4245 39.2 37.7233 39.5225V43.4046L37.5132 43.5683H36.8129C35.669 43.2643 35.6924 42.1417 35.8791 40.7386ZM21.0326 44.4102C21.2306 44.2853 21.3982 44.1174 21.5228 43.9191C21.4102 43.5076 21.1637 43.1455 20.8225 42.8901V42.0716C20.9776 42.0078 21.1085 41.8966 21.1966 41.7538C21.2846 41.6109 21.3253 41.4438 21.3128 41.2764L20.7759 40.8087L20.9393 38.4701C20.8759 38.3358 20.7772 38.2213 20.6538 38.139C20.5305 38.0566 20.3871 38.0093 20.239 38.0024C19.1885 38.5169 16.8541 40.341 17.2743 41.8377C17.8112 42.1417 18.9784 41.674 19.3519 41.8377C19.4834 42.1654 19.5392 42.5187 19.5149 42.8711C19.4907 43.2235 19.387 43.5658 19.2118 43.8723C19.8188 44.5973 20.1689 45.2755 21.0326 44.4102ZM19.3052 40.9023H18.3014C18.2513 40.8882 18.2057 40.8614 18.1689 40.8245C18.1321 40.7877 18.1054 40.742 18.0913 40.6918C18.1419 40.3759 18.2652 40.0761 18.4516 39.8163C18.638 39.5564 18.8823 39.3438 19.1651 39.1951H19.3752L19.6087 39.733C19.6416 40.2072 19.5096 40.6782 19.2352 41.066L19.3052 40.9023ZM29.7164 86.7858C29.2962 88.3761 29.5764 91.0655 28.7127 92.1646C28.7127 91.6501 28.4325 91.0187 28.3392 90.434C28.3392 89.3271 28.3392 88.2202 28.3392 87.1132C28.4128 86.5174 28.3652 85.9128 28.1991 85.3359C27.5455 85.8971 26.8685 86.5286 26.1916 87.0431C25.8509 89.7072 26.4362 92.4076 27.8489 94.6903C28.109 95.1456 28.4584 95.5434 28.8761 95.8596C29.9086 94.9 30.6988 93.7084 31.1818 92.3829C31.6647 91.0575 31.8265 89.6361 31.6539 88.2357C31.0037 87.8208 30.4211 87.3081 29.9265 86.7157L29.7164 86.7858Z" fill="#C0B279"/>
</g>
<defs>
<clipPath id="clip0_1411_712">
<rect width="373.333" height="96" fill="white"/>
</clipPath>
</defs>
</svg>
